<?xml version="1.0" encoding="UTF-8" standalone="no"?>
<!DOCTYPE svg PUBLIC "-//W3C//DTD SVG 1.1//EN" "http://www.w3.org/Graphics/SVG/1.1/DTD/svg11.dtd">
<svg width="100%" height="100%" viewBox="0 0 1000 804" version="1.1" xmlns="http://www.w3.org/2000/svg" xmlns:xlink="http://www.w3.org/1999/xlink" xml:space="preserve" xmlns:serif="http://www.serif.com/" style="fill-rule:evenodd;clip-rule:evenodd;stroke-linejoin:round;stroke-miterlimit:2;">
    <g transform="matrix(21.714084,0,0,21.714084,-4062.669563,-7007.463385)">
        <g transform="matrix(50,0,0,50,186.764706,358.823529)">
            <path d="M0.025,0.007C0.019,0.007 0.014,0.004 0.011,-0.001C0.007,-0.006 0.006,-0.011 0.007,-0.017C0.008,-0.027 0.012,-0.036 0.016,-0.045C0.021,-0.053 0.024,-0.06 0.026,-0.064C0.028,-0.068 0.03,-0.073 0.033,-0.078L0.051,-0.121L0.252,-0.722L0.468,-0.305L0.677,-0.722L0.928,-0L0.666,-0L0.544,-0.373L0.357,0.018L0.16,-0.334L0.091,-0.121C0.081,-0.097 0.073,-0.077 0.068,-0.06C0.064,-0.043 0.06,-0.031 0.057,-0.021C0.051,-0.001 0.04,0.009 0.025,0.007Z" style="fill:rgb(228,54,54);fill-rule:nonzero;"/>
        </g>
    </g>
</svg>
