<?xml version="1.0" encoding="UTF-8" standalone="no"?>
<!DOCTYPE svg PUBLIC "-//W3C//DTD SVG 1.1//EN" "http://www.w3.org/Graphics/SVG/1.1/DTD/svg11.dtd">
<svg width="100%" height="100%" viewBox="0 0 1000 135" version="1.1" xmlns="http://www.w3.org/2000/svg" xmlns:xlink="http://www.w3.org/1999/xlink" xml:space="preserve" xmlns:serif="http://www.serif.com/" style="fill-rule:evenodd;clip-rule:evenodd;stroke-linejoin:round;stroke-miterlimit:2;">
    <g transform="matrix(3.383633,0,0,3.383633,-633.072119,-1084.762509)">
        <g transform="matrix(50,0,0,50,186.764706,358.823529)">
            <path d="M0.025,0.007C0.019,0.007 0.014,0.004 0.011,-0.001C0.007,-0.006 0.006,-0.011 0.007,-0.017C0.008,-0.027 0.012,-0.036 0.016,-0.045C0.021,-0.053 0.024,-0.06 0.026,-0.064C0.028,-0.068 0.03,-0.073 0.033,-0.078L0.051,-0.121L0.252,-0.722L0.468,-0.305L0.677,-0.722L0.928,-0L0.666,-0L0.544,-0.373L0.357,0.018L0.16,-0.334L0.091,-0.121C0.081,-0.097 0.073,-0.077 0.068,-0.06C0.064,-0.043 0.06,-0.031 0.057,-0.021C0.051,-0.001 0.04,0.009 0.025,0.007Z" style="fill:rgb(228,54,54);fill-rule:nonzero;"/>
        </g>
        <g transform="matrix(50,0,0,50,233.712948,358.823529)">
            <path d="M0.04,-0.264C0.04,-0.303 0.047,-0.338 0.061,-0.37C0.075,-0.402 0.094,-0.43 0.119,-0.454C0.173,-0.505 0.24,-0.53 0.32,-0.53C0.403,-0.53 0.47,-0.504 0.521,-0.451C0.571,-0.401 0.596,-0.338 0.596,-0.262C0.596,-0.186 0.57,-0.122 0.52,-0.07C0.467,-0.017 0.4,0.009 0.318,0.009C0.239,0.009 0.173,-0.016 0.12,-0.066C0.066,-0.118 0.04,-0.184 0.04,-0.264ZM0.305,-0.027C0.307,-0.027 0.31,-0.027 0.312,-0.027L0.319,-0.027C0.385,-0.027 0.44,-0.047 0.485,-0.088C0.532,-0.132 0.556,-0.189 0.556,-0.261C0.556,-0.33 0.534,-0.387 0.489,-0.43C0.445,-0.473 0.389,-0.495 0.319,-0.495L0.312,-0.495C0.309,-0.495 0.307,-0.494 0.305,-0.494L0.305,-0.027Z" style="fill:rgb(228,54,54);fill-rule:nonzero;"/>
        </g>
        <g transform="matrix(50,0,0,50,265.524472,358.823529)">
            <path d="M0.002,-0.521L0.223,-0.521L0.356,-0.248L0.439,-0.414C0.457,-0.449 0.468,-0.475 0.472,-0.493C0.476,-0.51 0.481,-0.521 0.485,-0.524C0.49,-0.528 0.495,-0.53 0.501,-0.53C0.508,-0.53 0.513,-0.528 0.516,-0.524C0.52,-0.52 0.521,-0.515 0.521,-0.511C0.521,-0.507 0.521,-0.503 0.52,-0.499C0.519,-0.494 0.518,-0.489 0.516,-0.481C0.511,-0.468 0.5,-0.445 0.485,-0.412L0.27,0.022L0.002,-0.521Z" style="fill:rgb(228,54,54);fill-rule:nonzero;"/>
        </g>
        <g transform="matrix(50,0,0,50,291.623104,358.823529)">
            <path d="M0.187,-0.607C0.153,-0.607 0.127,-0.614 0.108,-0.629C0.09,-0.644 0.08,-0.664 0.08,-0.688C0.08,-0.709 0.09,-0.727 0.111,-0.741C0.133,-0.757 0.157,-0.765 0.182,-0.765C0.206,-0.765 0.226,-0.762 0.239,-0.757C0.253,-0.752 0.264,-0.746 0.273,-0.738C0.292,-0.722 0.302,-0.704 0.302,-0.683C0.302,-0.661 0.291,-0.644 0.27,-0.629C0.248,-0.614 0.221,-0.607 0.187,-0.607ZM0.084,-0.521L0.294,-0.521L0.294,-0L0.084,-0L0.084,-0.521Z" style="fill:rgb(228,54,54);fill-rule:nonzero;"/>
        </g>
        <g transform="matrix(50,0,0,50,310.10455,358.823529)">
            <path d="M0.538,-0.119C0.55,-0.119 0.557,-0.113 0.557,-0.101C0.557,-0.092 0.551,-0.082 0.54,-0.07C0.488,-0.017 0.418,0.009 0.328,0.009C0.248,0.009 0.18,-0.015 0.125,-0.063C0.068,-0.114 0.04,-0.178 0.04,-0.255C0.04,-0.334 0.065,-0.398 0.117,-0.449C0.171,-0.503 0.243,-0.53 0.333,-0.53C0.406,-0.53 0.466,-0.508 0.516,-0.464C0.569,-0.417 0.595,-0.355 0.595,-0.278C0.595,-0.267 0.595,-0.256 0.594,-0.243L0.272,-0.243L0.272,-0.034C0.294,-0.029 0.319,-0.027 0.347,-0.027C0.405,-0.027 0.455,-0.046 0.497,-0.085C0.505,-0.093 0.511,-0.1 0.515,-0.105C0.522,-0.114 0.53,-0.119 0.538,-0.119ZM0.407,-0.485C0.386,-0.492 0.362,-0.495 0.335,-0.495C0.309,-0.495 0.288,-0.493 0.272,-0.489L0.272,-0.279L0.407,-0.279L0.407,-0.485Z" style="fill:rgb(228,54,54);fill-rule:nonzero;"/>
        </g>
        <g transform="matrix(50,0,0,50,341.842831,358.823529)">
            <path d="M0.579,-0.696C0.592,-0.696 0.599,-0.689 0.599,-0.675C0.599,-0.668 0.597,-0.66 0.593,-0.651C0.588,-0.641 0.585,-0.634 0.582,-0.628L0.317,0.027L-0.004,-0.691L0.262,-0.691L0.417,-0.326L0.526,-0.598C0.538,-0.627 0.546,-0.649 0.549,-0.662C0.553,-0.675 0.557,-0.684 0.561,-0.689C0.565,-0.694 0.571,-0.696 0.579,-0.696Z" style="fill:rgb(228,54,54);fill-rule:nonzero;"/>
        </g>
        <g transform="matrix(50,0,0,50,372.60455,358.823529)">
            <path d="M0.538,-0.119C0.55,-0.119 0.557,-0.113 0.557,-0.101C0.557,-0.092 0.551,-0.082 0.54,-0.07C0.488,-0.017 0.418,0.009 0.328,0.009C0.248,0.009 0.18,-0.015 0.125,-0.063C0.068,-0.114 0.04,-0.178 0.04,-0.255C0.04,-0.334 0.065,-0.398 0.117,-0.449C0.171,-0.503 0.243,-0.53 0.333,-0.53C0.406,-0.53 0.466,-0.508 0.516,-0.464C0.569,-0.417 0.595,-0.355 0.595,-0.278C0.595,-0.267 0.595,-0.256 0.594,-0.243L0.272,-0.243L0.272,-0.034C0.294,-0.029 0.319,-0.027 0.347,-0.027C0.405,-0.027 0.455,-0.046 0.497,-0.085C0.505,-0.093 0.511,-0.1 0.515,-0.105C0.522,-0.114 0.53,-0.119 0.538,-0.119ZM0.407,-0.485C0.386,-0.492 0.362,-0.495 0.335,-0.495C0.309,-0.495 0.288,-0.493 0.272,-0.489L0.272,-0.279L0.407,-0.279L0.407,-0.485Z" style="fill:rgb(228,54,54);fill-rule:nonzero;"/>
        </g>
        <g transform="matrix(50,0,0,50,404.342831,358.823529)">
            <path d="M0.084,-0.521L0.294,-0.521L0.294,-0.368C0.317,-0.424 0.341,-0.465 0.367,-0.491C0.393,-0.517 0.419,-0.53 0.445,-0.53C0.459,-0.53 0.471,-0.526 0.48,-0.519C0.488,-0.511 0.493,-0.503 0.493,-0.493C0.493,-0.484 0.491,-0.476 0.489,-0.471C0.486,-0.465 0.483,-0.46 0.479,-0.457C0.47,-0.448 0.461,-0.444 0.454,-0.444C0.441,-0.444 0.432,-0.446 0.426,-0.448C0.416,-0.453 0.407,-0.455 0.399,-0.455C0.392,-0.455 0.382,-0.449 0.37,-0.436C0.358,-0.424 0.346,-0.406 0.335,-0.384C0.308,-0.33 0.294,-0.272 0.294,-0.208L0.294,-0L0.084,-0L0.084,-0.521Z" style="fill:rgb(228,54,54);fill-rule:nonzero;"/>
        </g>
        <g transform="matrix(50,0,0,50,427.902401,358.823529)">
            <path d="M0.046,-0.065C0.046,-0.07 0.048,-0.075 0.052,-0.079C0.055,-0.083 0.059,-0.085 0.065,-0.085C0.07,-0.085 0.075,-0.083 0.079,-0.08C0.079,-0.08 0.083,-0.076 0.091,-0.069C0.125,-0.039 0.172,-0.024 0.233,-0.024C0.274,-0.024 0.3,-0.033 0.312,-0.05C0.315,-0.054 0.317,-0.059 0.317,-0.064C0.317,-0.068 0.316,-0.073 0.314,-0.077C0.312,-0.082 0.309,-0.087 0.303,-0.094C0.297,-0.1 0.289,-0.107 0.278,-0.116L0.235,-0.151C0.164,-0.206 0.115,-0.251 0.089,-0.286C0.065,-0.317 0.053,-0.349 0.053,-0.382C0.053,-0.424 0.072,-0.458 0.11,-0.486C0.149,-0.516 0.2,-0.53 0.263,-0.53C0.307,-0.53 0.341,-0.525 0.367,-0.515C0.392,-0.505 0.41,-0.496 0.42,-0.488C0.431,-0.479 0.436,-0.472 0.436,-0.465C0.436,-0.451 0.431,-0.444 0.419,-0.444C0.414,-0.444 0.409,-0.446 0.405,-0.449C0.401,-0.453 0.392,-0.46 0.379,-0.469C0.366,-0.477 0.349,-0.485 0.327,-0.49C0.306,-0.495 0.286,-0.498 0.267,-0.498C0.249,-0.498 0.235,-0.495 0.228,-0.489C0.22,-0.483 0.216,-0.477 0.216,-0.471C0.216,-0.466 0.217,-0.46 0.22,-0.455C0.222,-0.45 0.226,-0.444 0.232,-0.438C0.247,-0.421 0.27,-0.401 0.301,-0.377C0.333,-0.354 0.36,-0.333 0.381,-0.314C0.403,-0.295 0.42,-0.277 0.433,-0.261C0.455,-0.231 0.466,-0.202 0.466,-0.172C0.466,-0.142 0.461,-0.116 0.45,-0.095C0.439,-0.074 0.423,-0.055 0.402,-0.04C0.359,-0.007 0.301,0.009 0.229,0.009C0.171,0.009 0.123,-0.002 0.084,-0.024C0.059,-0.038 0.046,-0.052 0.046,-0.065Z" style="fill:rgb(228,54,54);fill-rule:nonzero;"/>
        </g>
        <g transform="matrix(50,0,0,50,452.877987,358.823529)">
            <path d="M0.538,-0.119C0.55,-0.119 0.557,-0.113 0.557,-0.101C0.557,-0.092 0.551,-0.082 0.54,-0.07C0.488,-0.017 0.418,0.009 0.328,0.009C0.248,0.009 0.18,-0.015 0.125,-0.063C0.068,-0.114 0.04,-0.178 0.04,-0.255C0.04,-0.334 0.065,-0.398 0.117,-0.449C0.171,-0.503 0.243,-0.53 0.333,-0.53C0.406,-0.53 0.466,-0.508 0.516,-0.464C0.569,-0.417 0.595,-0.355 0.595,-0.278C0.595,-0.267 0.595,-0.256 0.594,-0.243L0.272,-0.243L0.272,-0.034C0.294,-0.029 0.319,-0.027 0.347,-0.027C0.405,-0.027 0.455,-0.046 0.497,-0.085C0.505,-0.093 0.511,-0.1 0.515,-0.105C0.522,-0.114 0.53,-0.119 0.538,-0.119ZM0.407,-0.485C0.386,-0.492 0.362,-0.495 0.335,-0.495C0.309,-0.495 0.288,-0.493 0.272,-0.489L0.272,-0.279L0.407,-0.279L0.407,-0.485Z" style="fill:rgb(228,54,54);fill-rule:nonzero;"/>
        </g>
    </g>
</svg>
